<svg width="30" height="33" viewBox="0 0 30 33" fill="none" xmlns="http://www.w3.org/2000/svg">
<path d="M4.33531 20.1725C4.2658 21.033 4.62139 21.2906 5.1784 21.6994C5.72917 22.1035 9.0846 19.0235 10.1817 18.555C11.2788 18.0865 21.5776 15.8027 21.1311 13.7176C20.6846 11.6326 17.5725 11.3246 15.1752 11.7502C12.7778 12.1758 8.18982 14.384 6.84943 15.5759C5.50904 16.7668 4.33531 20.1725 4.33531 20.1725ZM12.0194 21.5696C12.0194 21.5696 8.84931 22.6476 8.84931 25.4476C8.84931 28.2475 9.62111 29.8267 9.98651 30.5929C10.3528 31.3583 11.4909 32.1012 13.0657 31.3872C14.8944 30.5575 12.6281 25.7836 18.4129 27.975C21.0634 28.9783 23.8128 30.3344 26.4865 29.4011C29.0229 28.5154 29.9996 25.1741 29.9996 23.3075C29.9996 19.4865 27.326 20.5075 26.4348 21.4408C25.5436 22.3742 18.4138 24.2408 17.5226 24.2408C16.6314 24.2408 12.0194 21.5696 12.0194 21.5696Z" fill="#EF9645"/>
<path d="M16.0184 26.2829C16.0184 26.2829 15.9115 25.0547 14.793 24.9119C13.8741 24.7952 12.4259 25.1163 11.6737 26.6908C10.9215 28.2662 9.58473 28.003 9.64087 29.3153C9.69613 30.6275 10.0865 31.6486 10.8939 31.9108C11.7023 32.174 12.8439 31.7074 12.9829 30.3074C13.122 28.9074 13.2895 27.6241 14.1522 27.0697C15.0167 26.5162 16.0184 26.2829 16.0184 26.2829Z" fill="#F9CA55"/>
<path d="M14.8492 24.2408C14.8492 24.2408 13.958 23.3075 12.1756 23.3075C10.3931 23.3075 6.23652 25.2983 7.4967 29.2574C8.38791 32.0573 10.9225 30.7451 11.2844 27.9741C11.6471 25.1993 14.8492 24.2408 14.8492 24.2408Z" fill="#EF9645"/>
<path d="M13.9578 24.2408C13.9578 24.2408 13.0666 23.3075 11.2841 23.3075C9.50172 23.3075 6.93056 24.7355 6.82807 28.9074C6.7443 32.3196 10.4206 30.774 10.3929 27.9741C10.3653 25.1741 13.9578 24.2408 13.9578 24.2408Z" fill="#F9CA55"/>
<path d="M3.26343 25.1741C3.26343 28.2513 3.67071 30.1076 5.4273 29.7913C8.34068 29.2667 7.23468 25.4849 9.78445 24.4209C11.6355 23.6491 14.3305 23.833 16.932 25.4504C18.6458 26.5162 17.5229 22.3742 15.7404 21.4409C13.958 20.5076 8.61072 21.4409 7.7195 21.4409C6.82829 21.4409 3.26343 25.1741 3.26343 25.1741Z" fill="#EF9645"/>
<path d="M3.12282 25.3365C1.7049 27.8238 2.5676 30.3951 5.04607 29.8407C7.44432 29.3049 6.24297 26.0421 8.61093 24.2408C9.93794 23.2309 12.7979 22.8921 14.5803 23.8254C16.3627 24.7588 16.6319 22.3741 14.8494 21.4408C13.067 20.5075 7.23845 21.4175 6.34902 21.4754C4.64769 21.5864 3.12282 25.3365 3.12282 25.3365Z" fill="#F9CA55"/>
<path d="M7.20073 27.1471C6.59559 27.8733 5.54307 27.9489 4.84881 27.3151L4.67413 27.1555C3.97988 26.5218 3.90858 25.4205 4.51371 24.6935L24.5865 0.598025C25.1917 -0.128095 26.2442 -0.203694 26.9385 0.430028L27.1123 0.589625C27.8065 1.22335 27.8778 2.32559 27.2736 3.05171L7.20073 27.1471Z" fill="#9549F2"/>
<path d="M8.15622 26.001C6.05295 28.5256 0.747549 33.4759 0.0755727 32.8627C-0.595512 32.2496 3.36683 26.0729 5.4701 23.5473C7.57336 21.0218 6.9504 23.0415 7.6919 23.72C8.43339 24.3976 10.2595 23.4773 8.15622 26.001Z" fill="#964AF3"/>
<path d="M4.75342 23.3318C4.75342 24.2651 6.91105 25.1191 7.80226 24.1858C8.69348 23.2524 10.7798 22.1063 13.523 23.3075C19.9433 26.1168 17.5227 22.3742 14.8491 21.4409C12.1755 20.5076 7.71938 21.4409 6.82817 21.4409C5.93695 21.4409 4.75342 23.3318 4.75342 23.3318Z" fill="#EF9645"/>
<path d="M4.32871 20.5477C4.00965 19.5089 6.27869 13.7541 7.30626 12.8628C8.6003 11.7409 13.6063 10.004 15.3887 10.004C17.1711 10.004 30.0002 16.7743 30.0002 21.4409C30.0002 26.1075 28.2177 26.6908 25.6555 27.4197C23.6066 28.003 19.3145 27.6456 17.4394 25.8153C15.796 24.2119 14.6543 23.1031 13.0671 22.3742C10.1243 21.0228 8.16271 22.7699 7.2715 23.7032C5.48907 25.5699 2.13097 23.5548 4.93206 20.362C6.9364 18.0763 8.7019 17.3642 10.3934 16.7743C15.7407 14.9077 19.3056 14.9077 17.5231 13.041C16.8931 12.3812 16.5499 13.364 15.673 13.531C13.9084 13.867 12.5038 14.0929 10.1786 14.9049C9.37477 15.1849 5.56928 17.7263 4.32871 20.5477Z" fill="#FFDC5D"/>
<path d="M10.5681 15.1643C11.5164 14.8021 15.6498 14.0144 17.8003 13.2342C19.5373 12.6033 21.0613 13.8278 17.7647 15.1269C14.583 16.3804 11.2775 16.2777 8.8668 17.2801C7.95508 17.659 7.16458 16.4635 10.5681 15.1643Z" fill="#EF9645"/>
<path d="M18.8482 7.46259C18.8482 7.46259 13.5651 13.8045 11.321 16.4794C13.3298 15.6151 15.1274 15.7794 16.8448 14.721C18.5622 13.6635 19.3455 12.5352 21.9515 9.40575C22.9193 8.2447 18.8482 7.46259 18.8482 7.46259Z" fill="#964AF3"/>
</svg>
